# xmcd
#
# Track frame offsets: 
#        150
#        19087
#        34445
#        56056
#        75729
#        90525
#        111825
#        130940
#        147750
#        167421
#        191418
#        208949
#        221373
#        243427
#        264616
#        286486
#
# Disc length: 4076 seconds
#
# Revision: 3
# Processed by: cddbd v1.5.2PL0 Copyright (c) Steve Scherf et al.
# Submitted via: ExactAudioCopy v1.1
#
DISCID=e90fea10
DTITLE=??? - ?????? DISC 4
DYEAR=2014
DGENRE=Pop
TTITLE0=??????
TTITLE1=??
TTITLE2=??
TTITLE3=?????
TTITLE4=????
TTITLE5=??
TTITLE6=?????
TTITLE7=My Shirley
TTITLE8=????
TTITLE9=???
TTITLE10=???
TTITLE11=?????
TTITLE12=??????
TTITLE13=?????
TTITLE14=?????
TTITLE15=????
EXTD=
EXTT0=
EXTT1=
EXTT2=
EXTT3=
EXTT4=
EXTT5=
EXTT6=
EXTT7=
EXTT8=
EXTT9=
EXTT10=
EXTT11=
EXTT12=
EXTT13=
EXTT14=
EXTT15=
PLAYORDER=
